<?xml version="1.0" encoding="utf-8"?>
<!-- Generator: Adobe Illustrator 27.5.0, SVG Export Plug-In . SVG Version: 6.00 Build 0)  -->
<svg version="1.1" id="Capa_1" xmlns="http://www.w3.org/2000/svg" xmlns:xlink="http://www.w3.org/1999/xlink" x="0px" y="0px"
	 viewBox="0 0 2122 2122" style="enable-background:new 0 0 2122 2122;" xml:space="preserve">
<g>
	<path style="fill:#E52329;" d="M1929.372,1521.969c-6.392-64.424-24.117-128.502-58.543-173.99
		c-13.817-18.251-30.383-31.861-48.721-41.674c-67.114-35.851-158.047-20.509-225.315,7.45
		c-14.039,5.841-28.586,10.194-43.432,13.538c-0.633-59.365-18.23-120.733-39.322-173.079
		c-32.463-80.555-79.157-153.571-131.176-222.774C1279.287,793.648,1152.135,663.135,1103,493.568
		c-26.168-90.307-28.57-187.681,13.096-273.734c14.567-30.093-30.797-56.443-44.892-26.241
		c-18.502,39.649-29.192,80.867-33.517,122.593c-20.816,14.202-39.412,40.05-63.258,50.554
		c-33.374,14.697-69.771,20.996-105.903,25.927c-78.192,10.667-157.33,15.542-234.421,32.414
		c-77.091,16.872-153.427,46.889-211.023,100.838c-60.222,56.409-95.115,133.849-135.98,205.535
		C246.239,803.139,193.335,874.54,115.849,902.9c56.743-5.455,113.652-10.914,170.638-9.472
		c36.911,0.935,73.749,4.765,110.668,4.239c152.872-2.178,302.38-84.416,386.072-212.36
		c34.853-53.281,58.487-113.026,89.647-168.548s72.117-108.663,129.474-136.302c10.907-5.256,22.433-9.661,33.142-15.254
		c0.486,42.368,6.95,84.832,18.083,126.327C986.064,644.519,860.99,754.56,760.513,885.526
		c-67.142,87.518-125.38,197.399-131.669,309.162c-12.736-1.288-25.372-2.633-37.824-3.8c-53.101-4.982-107.62-7.732-158.87,7.023
		c-134.048,38.607-164.426,190.842-157.671,312.516c4.828,86.833,36.143,164.884,84.604,227.992
		c32.69,42.587,73.167,78.378,118.57,105.469c55.162,32.974,117.603,53.098,182.115,57.038
		c200.82,12.268,353.388-134.036,406.73-318.989c11.742-40.731,20.307-90.336,22.07-140.645
		c2.222-64.702-6.835-130.565-34.911-180.224c-11.271-19.927-25.881-35.618-42.755-47.778
		c-61.756-44.448-153.922-41.323-224.307-22.548c-33.744,9.013-69.062,10.111-104.387,8.293
		c3.5-250.941,296.811-424.688,387.473-656.567c15.454,42.482,35.348,83.407,58.161,121.502
		c92.312,154.154,228.896,276.872,315.351,434.916c24.96,45.625,44.979,93.413,58.573,143.649
		c8.229,30.411,11.775,60.632,13.919,91.171c-37.511,4.564-75.986,4.714-112.716,6.173c-53.296,2.117-107.693,6.633-156.531,28.066
		c-127.732,56.073-137.617,210.996-114.757,330.691c16.322,85.423,57.73,158.621,114.139,214.733
		c38.061,37.866,82.933,67.964,131.532,88.782c59.055,25.357,123.615,37.006,188.077,32.341
		c200.672-14.519,332.448-179.793,360.75-370.19C1932.407,1622.37,1934.307,1572.066,1929.372,1521.969z"/>
	<path style="fill:#CD202C;" d="M1053.658,1261.068c-11.271-19.927-25.881-35.618-42.755-47.778
		c0.843,6.495,1.659,12.721,2.307,18.563c9.564,85.661-8.051,174.312-51.362,248.996
		c-55.279,95.327-151.442,166.053-258.967,190.226c-64.814,14.563-132.071,12.782-198.027,20.604
		c-51.006,6.051-103.359,19.038-145.771,46.74c32.69,42.587,73.167,78.378,118.57,105.469
		c55.162,32.974,117.603,53.098,182.115,57.038c200.82,12.268,353.388-134.036,406.73-318.989
		c11.742-40.731,20.307-90.336,22.07-140.645C1090.791,1376.59,1081.734,1310.727,1053.658,1261.068z"/>
	<path style="fill:#CD202C;" d="M1929.372,1521.969c-6.392-64.424-24.117-128.502-58.543-173.99
		c-13.817-18.251-30.383-31.861-48.721-41.674c1.695,6.327,3.332,12.388,4.75,18.093c20.858,83.63,15.177,173.834-17.827,253.612
		c-42.129,101.825-128.044,184.699-231.401,222.94c-62.309,23.045-129.203,30.215-193.534,46.728
		c-49.754,12.773-99.917,32.599-138.275,65.691c38.061,37.866,82.933,67.964,131.532,88.782
		c59.055,25.357,123.615,37.006,188.077,32.341c200.672-14.519,332.448-179.793,360.75-370.19
		C1932.407,1622.37,1934.307,1572.066,1929.372,1521.969z"/>
	<path style="fill:#E8424F;" d="M498.321,1249.236c-7.749-6.346-18.906-6.297-28.74-4.38c-37.354,7.277-67.018,35.898-88.923,67.02
		c-46.246,65.706-66.619,148.558-58.144,228.295c6.056,56.977,31.861,124.933,105.988,108.38c31.13-6.95,56.1-33.769,63.768-64.729
		c6.645-26.833,1.476-54.969-2.541-82.322c-9.834-66.981-12.292-136.949,10.115-200.833
		C505.922,1283.335,512.531,1260.873,498.321,1249.236z"/>
	<path style="fill:#B21826;" d="M873.566,1773.425c-77.822,50.339-171.564,75.664-264.144,71.367
		c-43.001-2-89.052-10.743-131.768-0.903c55.162,32.974,117.603,53.098,182.115,57.038
		c200.82,12.268,353.388-134.036,406.73-318.989c11.742-40.731,20.307-90.336,22.07-140.645
		c-15.902,39.14-25.998,81.047-41.591,120.49C1012.932,1647.991,951.385,1723.089,873.566,1773.425z"/>
	<path style="fill:#E8424F;" d="M1343.838,1661.196c-18.646-65.081-30.378-134.105-16.653-200.397
		c3.722-17.985,7.288-41.128-8.341-50.774c-8.526-5.262-19.576-3.73-29.067-0.524c-36.059,12.175-61.656,44.485-79.235,78.238
		c-37.106,71.269-46.295,156.093-27.298,233.998c13.569,55.666,48.171,119.59,119.445,93.34
		c29.929-11.026,51.113-40.921,54.601-72.626C1360.315,1714.972,1351.453,1687.771,1343.838,1661.196z"/>
	<path style="fill:#B21826;" d="M1904.154,1646.916c-22.29,89.968-73.315,172.577-143.761,232.806
		c-70.441,60.227-159.99,97.783-252.321,105.822c-42.884,3.73-89.69,1.182-130.718,16.606
		c59.055,25.357,123.615,37.006,188.077,32.341c200.672-14.519,332.448-179.793,360.75-370.19
		c6.227-41.932,8.127-92.236,3.192-142.333C1918.809,1562.875,1914.37,1605.754,1904.154,1646.916z"/>
	<path style="fill:#2A662D;" d="M1553.361,1327.292c-0.633-59.365-18.23-120.733-39.322-173.079
		c-32.463-80.555-79.157-153.571-131.176-222.774C1279.287,793.648,1152.135,663.135,1103,493.568
		c-26.168-90.307-28.57-187.681,13.096-273.734c14.567-30.093-30.797-56.443-44.892-26.241
		c-18.502,39.649-29.192,80.867-33.517,122.593c-20.816,14.202-39.412,40.05-63.258,50.554
		c-33.374,14.697-69.771,20.996-105.903,25.927c-78.192,10.667-157.33,15.542-234.421,32.414
		c-77.091,16.872-153.427,46.889-211.023,100.838c-60.222,56.409-95.115,133.849-135.98,205.535
		C246.239,803.139,193.335,874.54,115.849,902.9c56.743-5.455,113.652-10.914,170.638-9.472
		c36.911,0.935,73.749,4.765,110.668,4.239c152.872-2.178,302.38-84.416,386.072-212.36
		c34.853-53.281,58.487-113.026,89.647-168.548s72.117-108.663,129.474-136.302c10.907-5.256,22.433-9.661,33.142-15.254
		c0.486,42.368,6.95,84.832,18.083,126.327C986.064,644.519,860.99,754.56,760.513,885.526
		c-67.142,87.518-125.38,197.399-131.669,309.162c-2.724,48.42,4.245,97.192,24.561,144.655c0.183,0.427,0.398,0.808,0.597,1.212
		c9.565-1.433,18.956-3.986,27.971-7.704c7.449-3.073,14.452-6.918,21.007-11.404c-0.2-0.885-0.452-1.779-0.763-2.682
		c-14.467-41.997-20.537-81.743-20.008-119.731c3.5-250.941,296.811-424.688,387.473-656.567
		c15.454,42.482,35.348,83.407,58.161,121.502c92.312,154.154,228.896,276.872,315.351,434.916
		c24.96,45.625,44.979,93.413,58.573,143.649c8.229,30.411,11.775,60.632,13.919,91.171c1.407,20.018,2.217,40.17,3.328,60.607
		c0.121,2.217,0.758,4.15,1.692,5.84c8.001-0.168,16.14-1.272,24.468-3.503C1551.211,1374.317,1553.615,1350.964,1553.361,1327.292z
		"/>
	<path style="fill:#9B1924;" d="M1452.266,1382.666c-6.47-3.006-15.006,5.661-8.346,10.811
		c28.517,22.032,67.742,28.419,102.592,20.282c24.219-5.657,69.51-24.399,71.869-52.911c0.248-2.991-3.113-5.16-5.783-4.407
		c-9.973,2.813-12.906,7.903-20.702,14.94c-12.17,10.986-26.845,19.201-42.48,24.085c-1.423,0.445-2.831,0.804-4.243,1.182
		c-8.328,2.231-16.466,3.335-24.468,3.503C1497.156,1400.647,1474.788,1393.128,1452.266,1382.666z"/>
	<path style="fill:#9B1924;" d="M626.589,1341.584c-17.937-1.325-33.613-9.101-51.118-11.02c-5.615-0.617-7.886,7.086-4.407,10.638
		c27.42,27.995,84.102,24.185,117.749,11.323c30.029-11.479,72.351-40.095,78.158-74.382c1.618-9.549-9.671-18.39-17.457-10.161
		c-9.783,10.339-15.41,23.584-24.899,34.346c-6.445,7.31-13.706,13.693-21.636,19.12c-6.555,4.486-13.559,8.331-21.007,11.404
		c-9.014,3.718-18.406,6.271-27.971,7.704C644.967,1341.909,635.776,1342.265,626.589,1341.584z"/>
	<path style="fill:#1E5628;" d="M834.123,439.454c-40.18,5.521-77.321,21.236-111.743,42.722c-29.611,1.042-59.074,6.46-88.775,7.5
		c-31.437,1.098-62.774-2.044-94.138-1.291c-3.459,0.083-4.382,5.323-0.836,6.18c30.646,7.393,63.632,7.184,94.974,5.856
		c23.85-1.01,49.369-2.519,73.232-8.024c-51.805,35.688-97.258,83.511-137.468,127.397c-7.089,7.738-14.199,15.52-21.351,23.301
		c-28.945,12.176-57.252,24.484-88.493,30.977c-40.07,8.327-78.056,4.136-118.197,6.566c-2.321,0.139-2.838,3.354-0.55,4.08
		c35.035,11.101,76.996,5.961,112.574-0.862c26.981-5.175,55.402-13.272,80.878-25.845
		c-68.422,73.55-142.102,144.142-241.611,171.399c-6.894,1.888-3.98,12.112,2.936,10.643
		c47.666-10.121,89.876-31.798,128.298-59.645c-13.187,22.976-18.373,50.642-18.667,76.927c-0.012,1.081,1.574,1.05,1.661,0
		c2.961-35.149,18.031-63.051,36.145-91.549c41.863-33.521,79.289-73.699,114.627-112.899
		c10.418-11.556,20.811-23.031,31.262-34.349c-16.352,47.446-16.942,102.973-7.596,150.532c0.282,1.435,2.653,1.12,2.565-0.349
		c-1.637-27.9-1.915-56.07,0.779-83.917c2.593-26.766,9.342-51.972,15.068-77.869c37.995-40.483,77.24-78.3,121.842-109.033
		c-12.25,42.567-13.838,89.446-7.237,132.615c0.37,2.409,4.229,1.793,4.197-0.568c-0.627-48.063,5.187-92.797,14.194-139.573
		c30.95-20.07,64.533-36.701,102.123-48.402C836.469,441.458,835.743,439.232,834.123,439.454z"/>
	<path style="fill:#1E5628;" d="M685.992,752.002c-57.357,59.122-123.201,91.495-203.9,105.108
		c-3.715,0.626-2.816,6.641,0.882,6.529c79.079-2.387,159.408-46.139,206.933-108.619
		C691.639,752.745,687.926,750.008,685.992,752.002z"/>
	<path style="fill:#1E5628;" d="M803.78,596.735c-27.15,50.443-59.398,91.917-98.241,133.756c-1.747,1.881,0.577,5.357,2.874,3.73
		c45.337-32.102,81.262-83.679,99.162-135.885C808.34,596.106,804.891,594.672,803.78,596.735z"/>
	<path style="fill:#569B59;" d="M414.589,582.404c13.471-11.143,23.35-26.865,36.268-38.909
		c14.166-13.213,30.492-23.525,46.373-34.478c1.812-1.249,0.765-4.631-1.6-3.795c-18.422,6.507-34.251,17.53-48.799,30.465
		c-13.308,11.835-29.554,27.759-34.524,45.386C411.912,582.479,413.593,583.227,414.589,582.404z"/>
	<path style="fill:#569B59;" d="M387.25,628.606c4.911-6.246,9.533-12.784,14.699-18.851c2.69-3.157-1.367-7.184-4.534-4.531
		c-6.911,5.786-11.737,12.319-14.034,21.13C382.845,628.418,385.747,630.52,387.25,628.606z"/>
	<path style="fill:#569B59;" d="M318.421,720.391c-18.638,35.552-41.293,65.174-67.888,95.081c-0.969,1.092,0.309,3.074,1.654,2.144
		c32.577-22.541,57.058-58.633,69.164-95.99C321.908,719.909,319.267,718.781,318.421,720.391z"/>
	<path style="fill:#EF808F;" d="M451.466,1499.486c-2.65-19.225-11.118-35.909-15.847-54.482
		c-4.324-16.991-4.523-36.969-3.33-54.421c0.536-7.866,1.471-16.083-1.569-23.598c-2.365-5.844-7.752-10.893-14.054-11.001
		c-31.408-0.526-42.638,40.287-50.331,63.573c-11.145,33.737-18.445,68.992-18.524,104.626c-0.024,10.931,0.665,22.056,4.456,32.309
		c14.711,39.796,64.046,34.117,86.146,4.436c12.421-16.685,15.69-38.787,13.306-59.449
		C451.642,1500.812,451.557,1500.147,451.466,1499.486z"/>
	<path style="fill:#EF808F;" d="M1314.829,1667.218c-5.14-18.714-15.717-34.149-22.83-51.944
		c-6.509-16.28-9.315-36.063-10.412-53.522c-0.497-7.866-0.643-16.136-4.638-23.188c-3.109-5.484-9.111-9.789-15.372-9.07
		c-31.206,3.579-37.008,45.51-41.593,69.603c-6.64,34.904-9.272,70.808-4.697,106.151c1.408,10.841,3.542,21.779,8.638,31.449
		c19.786,37.532,67.956,25.457,85.988-6.86c10.134-18.163,10.49-40.501,5.423-60.675
		C1315.175,1668.509,1315.005,1667.861,1314.829,1667.218z"/>
</g>
</svg>
